<svg width="1006" height="532" viewBox="0 0 1006 532" fill="none" xmlns="http://www.w3.org/2000/svg">
<g filter="url(#filter0_d_122_4)">
<path d="M195.324 356.372C270.493 331.866 315.395 274.663 317.943 214.806C319.109 155.751 302.455 114.769 261.354 81.4233C220.252 48.0771 143.775 44.8685 74.3114 97.1154C37.1672 131.471 20.6479 154.175 8.06825 202.737C7.3445 205.531 7.04096 208.425 7.12175 211.31C9.94385 312.081 12.8148 411.595 22.563 437.77C23.2282 439.556 23.9312 441.329 24.5509 443.131C39.1101 485.468 92.7501 483.825 119.583 435.805C128.637 421.886 129.686 414.2 116.121 402.273C115.289 401.541 114.705 400.491 114.594 399.389C114.167 395.186 118.577 394.301 120.623 397.997C149.115 449.461 166.803 474.101 197.021 490.073C253.481 512.206 285.424 435.257 252.43 397.055C250.184 394.455 248.17 391.587 245.647 389.256C236.197 380.526 214.247 377.939 194.239 375.811C173.313 373.586 175.316 362.895 195.324 356.372Z" fill="#2174F1"/>
<path d="M76.6941 236.384C82.8902 232.578 89.3679 230.256 95.7558 229.398M95.7558 229.398C114.154 226.928 131.807 236.606 139.836 257.961C155.323 299.152 135.666 320.729 113.626 303.075C98.1385 290.67 90.0783 280.161 95.7558 229.398ZM317.943 214.806C315.395 274.663 270.493 331.866 195.324 356.372C175.316 362.895 173.313 373.586 194.239 375.811C214.247 377.939 236.197 380.526 245.647 389.256C248.17 391.587 250.184 394.455 252.43 397.055C285.424 435.257 253.481 512.206 197.021 490.073C166.803 474.101 149.115 449.461 120.623 397.997C118.577 394.301 114.167 395.186 114.594 399.389V399.389C114.705 400.491 115.289 401.541 116.121 402.273C129.686 414.2 128.637 421.886 119.583 435.805C92.7501 483.825 39.1101 485.468 24.5509 443.131C23.9312 441.329 23.2282 439.556 22.563 437.77C12.8148 411.595 9.94385 312.081 7.12175 211.31C7.04096 208.425 7.3445 205.531 8.06825 202.737C20.6479 154.175 37.1672 131.471 74.3114 97.1154C143.775 44.8685 220.252 48.0771 261.354 81.4233C302.455 114.769 319.109 155.751 317.943 214.806Z" stroke="black" stroke-width="5"/>
<path d="M330.152 292.43C265.411 282.31 256.869 218.209 283.955 184.448C316.914 130.63 459.3 110.611 502.882 128.088C542.48 143.968 570.022 152.231 568.329 180.036C567.966 185.993 564.677 191.289 560.337 195.386C513.27 239.832 456.123 275.444 410.787 327.44C401.658 337.91 394.932 346.004 390.023 352.248C424.01 310.098 542.548 272.294 601.669 301.123C644.895 326.029 656.514 384.101 628.959 414.055C601.405 444.009 540.172 469.391 378.201 479.802C335.537 479.991 315.717 438.381 317.42 406.045C319.123 373.709 349.987 318.686 421.556 250.237C437.936 231.434 459.519 210.503 469.531 206.885C471.211 206.279 471.063 204.212 469.295 204.458C460.699 205.655 452.218 207.299 443.506 209.11C422.94 213.385 406.02 228.859 384.621 253.951C368.399 269.099 373.242 284.59 339.486 292.119C336.439 292.799 333.236 292.913 330.152 292.43Z" fill="#2174F1" stroke="black" stroke-width="5"/>
<path d="M551.587 154.026C578.127 61.1429 648.908 49.456 693.076 131.916C702.786 150.044 708.158 166.784 711.52 183.586C715.51 203.522 734.899 215.571 750.373 202.383C755.52 197.995 759.663 193.41 761.387 189.173C766.931 175.554 764.116 172.095 773.808 76.4445C783.501 -19.2056 868.662 -13.0587 900.023 45.1964C934.555 109.342 915.749 200.154 841.624 240.792C811.181 254.27 791.216 258.208 748.487 256.237C802.057 261.29 831.151 264.333 858.039 275.351C911.687 298.592 931.203 319.043 907.296 396.775C897.157 436.668 859.748 469.012 839.458 464.422C837.754 464.037 836.088 463.43 834.389 463.024C778.871 449.754 750.178 433.738 752.884 387.701C760.774 332.97 760.989 305.955 734.85 290.375C732.341 288.879 729.25 288.81 726.558 289.944C722.127 291.809 719.661 296.572 720.7 301.265C729.374 340.458 736.818 374.459 723.748 408.174C709.786 444.19 658.035 441.884 622.907 402.248C561.561 316.054 525.048 246.909 551.587 154.026Z" fill="#2174F1" stroke="black" stroke-width="5"/>
<circle cx="963" cy="425" r="10.5" fill="#2174F1" stroke="black" stroke-width="5"/>
</g>
<defs>
<filter id="filter0_d_122_4" x="0.608887" y="0.217773" width="1005.39" height="531.282" filterUnits="userSpaceOnUse" color-interpolation-filters="sRGB">
<feFlood flood-opacity="0" result="BackgroundImageFix"/>
<feColorMatrix in="SourceAlpha" type="matrix" values="0 0 0 0 0 0 0 0 0 0 0 0 0 0 0 0 0 0 127 0" result="hardAlpha"/>
<feOffset dx="13" dy="18"/>
<feGaussianBlur stdDeviation="8.5"/>
<feComposite in2="hardAlpha" operator="out"/>
<feColorMatrix type="matrix" values="0 0 0 0 0 0 0 0 0 0 0 0 0 0 0 0 0 0 0.25 0"/>
<feBlend mode="normal" in2="BackgroundImageFix" result="effect1_dropShadow_122_4"/>
<feBlend mode="normal" in="SourceGraphic" in2="effect1_dropShadow_122_4" result="shape"/>
</filter>
</defs>
</svg>
